<svg width="900" height="563" viewBox="0 0 900 563" fill="none" xmlns="http://www.w3.org/2000/svg">
<rect x="25" y="25" width="840" height="503" rx="35" fill="white"/>
<g filter="url(#filter0_d_257_2)">
<rect x="30" y="30" width="830" height="493" rx="30" stroke="#353233" stroke-width="10" shape-rendering="crispEdges"/>
</g>
<path d="M545.5 37V156.5M704 37V156.5H595.5M856 156.5H753.5M856 388.5H587.5M502 388.5V520M856 197.5L803 197V239.5M856 321.5H803V281M856 260.5H803" stroke="black" stroke-width="5"/>
<path d="M112 275H432M271.5 163V395M432 163V395M112 163V395M191 163V395M354.5 163V395" stroke="black" stroke-width="5"/>
<path d="M560.329 462.48H551.725C551.149 462.48 550.573 462.24 549.997 461.76L549.025 460.932C548.521 460.524 548.269 460.044 548.269 459.492V452.04C548.269 451.32 548.557 450.72 549.133 450.24L549.997 449.52C550.573 449.04 551.149 448.8 551.725 448.8H561.301C561.877 448.8 562.453 449.04 563.029 449.52L563.893 450.24C564.469 450.72 564.757 451.32 564.757 452.04V453.48H561.733V452.796C561.733 452.436 561.709 452.208 561.661 452.112C561.637 451.992 561.517 451.848 561.301 451.68C561.085 451.512 560.917 451.416 560.797 451.392C560.677 451.344 560.401 451.32 559.969 451.32H553.057C552.625 451.32 552.349 451.344 552.229 451.392C552.109 451.416 551.941 451.512 551.725 451.68C551.509 451.848 551.377 451.992 551.329 452.112C551.305 452.208 551.293 452.436 551.293 452.796V458.484C551.293 458.844 551.305 459.084 551.329 459.204C551.377 459.3 551.509 459.432 551.725 459.6C551.941 459.768 552.109 459.876 552.229 459.924C552.349 459.948 552.625 459.96 553.057 459.96H561.661C562.237 459.96 562.813 460.2 563.389 460.68L564.253 461.4C564.829 461.88 565.117 462.48 565.117 463.2V470.76C565.117 471.48 564.829 472.08 564.253 472.56L563.389 473.28C562.813 473.76 562.237 474 561.661 474H551.365C550.789 474 550.213 473.76 549.637 473.28L548.773 472.56C548.197 472.08 547.909 471.48 547.909 470.76V469.32H550.933V470.004C550.933 470.364 550.945 470.604 550.969 470.724C551.017 470.82 551.149 470.952 551.365 471.12C551.581 471.288 551.749 471.396 551.869 471.444C551.989 471.468 552.265 471.48 552.697 471.48H560.329C560.761 471.48 561.037 471.468 561.157 471.444C561.277 471.396 561.445 471.288 561.661 471.12C561.877 470.952 561.997 470.82 562.021 470.724C562.069 470.604 562.093 470.364 562.093 470.004V463.956C562.093 463.596 562.069 463.368 562.021 463.272C561.997 463.152 561.877 463.008 561.661 462.84C561.445 462.672 561.277 462.576 561.157 462.552C561.037 462.504 560.761 462.48 560.329 462.48ZM582.646 472.56H582.502C582.502 472.848 582.238 473.148 581.71 473.46C581.278 473.724 580.978 473.88 580.81 473.928C580.666 473.976 580.378 474 579.946 474H573.79C573.214 474 572.638 473.76 572.062 473.28L571.198 472.56C570.622 472.08 570.334 471.48 570.334 470.76V466.44C570.334 465.72 570.622 465.12 571.198 464.64L572.062 463.92C572.638 463.44 573.214 463.2 573.79 463.2H580.234C580.69 463.2 580.978 463.224 581.098 463.272C581.218 463.296 581.374 463.392 581.566 463.56C581.854 463.8 581.998 464.04 581.998 464.28H582.142V459.996C582.142 459.636 582.118 459.408 582.07 459.312C582.046 459.192 581.926 459.048 581.71 458.88C581.494 458.712 581.326 458.616 581.206 458.592C581.086 458.544 580.81 458.52 580.378 458.52H574.546C574.114 458.52 573.814 458.556 573.646 458.628C573.502 458.676 573.214 458.88 572.782 459.24L570.622 457.44L571.486 456.72C571.918 456.36 572.206 456.156 572.35 456.108C572.518 456.036 572.818 456 573.25 456H581.71C582.286 456 582.862 456.24 583.438 456.72L584.302 457.44C584.878 457.92 585.166 458.52 585.166 459.24V470.004C585.166 470.364 585.178 470.604 585.202 470.724C585.25 470.82 585.382 470.952 585.598 471.12C585.814 471.288 585.934 471.432 585.958 471.552C586.006 471.648 586.03 471.876 586.03 472.236V474H584.77C584.338 474 584.038 473.976 583.87 473.928C583.726 473.856 583.51 473.7 583.222 473.46C582.838 473.148 582.646 472.848 582.646 472.56ZM573.358 467.196V470.004C573.358 470.364 573.37 470.604 573.394 470.724C573.442 470.82 573.574 470.952 573.79 471.12C574.006 471.288 574.174 471.396 574.294 471.444C574.414 471.468 574.69 471.48 575.122 471.48H579.514C579.946 471.48 580.234 471.456 580.378 471.408C580.546 471.36 580.846 471.204 581.278 470.94C581.71 470.676 581.962 470.484 582.034 470.364C582.106 470.244 582.142 470.004 582.142 469.644V467.196C582.142 466.836 582.118 466.608 582.07 466.512C582.046 466.392 581.926 466.248 581.71 466.08C581.494 465.912 581.326 465.816 581.206 465.792C581.086 465.744 580.81 465.72 580.378 465.72H575.122C574.69 465.72 574.414 465.744 574.294 465.792C574.174 465.816 574.006 465.912 573.79 466.08C573.574 466.248 573.442 466.392 573.394 466.512C573.37 466.608 573.358 466.836 573.358 467.196ZM590.545 447.36H593.569V469.5C593.569 470.052 593.593 470.4 593.641 470.544C593.689 470.664 593.857 470.82 594.145 471.012C594.457 471.252 594.637 471.444 594.685 471.588C594.757 471.708 594.793 472.044 594.793 472.596V474H593.713C593.257 474 592.957 473.976 592.813 473.928C592.669 473.88 592.417 473.736 592.057 473.496L591.265 472.956C590.905 472.716 590.689 472.524 590.617 472.38C590.569 472.236 590.545 471.888 590.545 471.336V447.36ZM611.967 472.56H611.823C611.823 472.848 611.559 473.148 611.031 473.46C610.599 473.724 610.299 473.88 610.131 473.928C609.987 473.976 609.699 474 609.267 474H603.111C602.535 474 601.959 473.76 601.383 473.28L600.519 472.56C599.943 472.08 599.655 471.48 599.655 470.76V466.44C599.655 465.72 599.943 465.12 600.519 464.64L601.383 463.92C601.959 463.44 602.535 463.2 603.111 463.2H609.555C610.011 463.2 610.299 463.224 610.419 463.272C610.539 463.296 610.695 463.392 610.887 463.56C611.175 463.8 611.319 464.04 611.319 464.28H611.463V459.996C611.463 459.636 611.439 459.408 611.391 459.312C611.367 459.192 611.247 459.048 611.031 458.88C610.815 458.712 610.647 458.616 610.527 458.592C610.407 458.544 610.131 458.52 609.699 458.52H603.867C603.435 458.52 603.135 458.556 602.967 458.628C602.823 458.676 602.535 458.88 602.103 459.24L599.943 457.44L600.807 456.72C601.239 456.36 601.527 456.156 601.671 456.108C601.839 456.036 602.139 456 602.571 456H611.031C611.607 456 612.183 456.24 612.759 456.72L613.623 457.44C614.199 457.92 614.487 458.52 614.487 459.24V470.004C614.487 470.364 614.499 470.604 614.523 470.724C614.571 470.82 614.703 470.952 614.919 471.12C615.135 471.288 615.255 471.432 615.279 471.552C615.327 471.648 615.351 471.876 615.351 472.236V474H614.091C613.659 474 613.359 473.976 613.191 473.928C613.047 473.856 612.831 473.7 612.543 473.46C612.159 473.148 611.967 472.848 611.967 472.56ZM602.679 467.196V470.004C602.679 470.364 602.691 470.604 602.715 470.724C602.763 470.82 602.895 470.952 603.111 471.12C603.327 471.288 603.495 471.396 603.615 471.444C603.735 471.468 604.011 471.48 604.443 471.48H608.835C609.267 471.48 609.555 471.456 609.699 471.408C609.867 471.36 610.167 471.204 610.599 470.94C611.031 470.676 611.283 470.484 611.355 470.364C611.427 470.244 611.463 470.004 611.463 469.644V467.196C611.463 466.836 611.439 466.608 611.391 466.512C611.367 466.392 611.247 466.248 611.031 466.08C610.815 465.912 610.647 465.816 610.527 465.792C610.407 465.744 610.131 465.72 609.699 465.72H604.443C604.011 465.72 603.735 465.744 603.615 465.792C603.495 465.816 603.327 465.912 603.111 466.08C602.895 466.248 602.763 466.392 602.715 466.512C602.691 466.608 602.679 466.836 602.679 467.196ZM638.621 458.52H633.473C633.041 458.52 632.765 458.544 632.645 458.592C632.525 458.616 632.357 458.712 632.141 458.88C631.925 459.048 631.793 459.192 631.745 459.312C631.721 459.408 631.709 459.636 631.709 459.996V470.004C631.709 470.364 631.721 470.604 631.745 470.724C631.793 470.82 631.925 470.952 632.141 471.12C632.357 471.288 632.525 471.396 632.645 471.444C632.765 471.468 633.041 471.48 633.473 471.48H638.585C639.017 471.48 639.305 471.456 639.449 471.408C639.617 471.36 639.917 471.204 640.349 470.94C640.781 470.676 641.033 470.484 641.105 470.364C641.177 470.244 641.213 470.004 641.213 469.644V460.68C641.213 460.2 640.925 459.72 640.349 459.24C639.773 458.76 639.197 458.52 638.621 458.52ZM639.017 474H632.141C631.565 474 630.989 473.76 630.413 473.28L629.549 472.56C628.973 472.08 628.685 471.48 628.685 470.76V459.24C628.685 458.52 628.973 457.92 629.549 457.44L630.413 456.72C630.989 456.24 631.565 456 632.141 456H638.477C639.053 456 639.629 456.24 640.205 456.72C640.781 457.296 641.069 457.656 641.069 457.8H641.213V447.36H644.237V470.004C644.237 470.364 644.249 470.604 644.273 470.724C644.321 470.82 644.453 470.952 644.669 471.12C644.885 471.288 645.005 471.432 645.029 471.552C645.077 471.648 645.101 471.876 645.101 472.236V474H643.841C643.409 474 643.109 473.976 642.941 473.928C642.797 473.856 642.581 473.7 642.293 473.46C641.909 473.148 641.717 472.848 641.717 472.56H641.573C641.573 472.848 641.309 473.148 640.781 473.46C640.349 473.724 640.049 473.88 639.881 473.928C639.737 473.976 639.449 474 639.017 474ZM662.964 470.76L665.124 472.56L664.26 473.28C663.828 473.64 663.528 473.856 663.36 473.928C663.216 473.976 662.928 474 662.496 474H652.884C652.308 474 651.732 473.76 651.156 473.28L650.292 472.56C649.716 472.08 649.428 471.48 649.428 470.76V459.24C649.428 458.52 649.716 457.92 650.292 457.44L651.156 456.72C651.732 456.24 652.308 456 652.884 456H661.272C661.752 456 662.328 456.24 663 456.72L663.9 457.44C664.476 457.872 664.764 458.472 664.764 459.24V466.62H652.452V470.004C652.452 470.364 652.464 470.604 652.488 470.724C652.536 470.82 652.668 470.952 652.884 471.12C653.1 471.288 653.268 471.396 653.388 471.444C653.508 471.468 653.784 471.48 654.216 471.48H661.2C661.632 471.48 661.92 471.456 662.064 471.408C662.232 471.336 662.532 471.12 662.964 470.76ZM661.74 464.28V459.996C661.74 459.636 661.716 459.408 661.668 459.312C661.644 459.192 661.524 459.048 661.308 458.88C661.092 458.712 660.924 458.616 660.804 458.592C660.684 458.544 660.408 458.52 659.976 458.52H654.216C653.784 458.52 653.508 458.544 653.388 458.592C653.268 458.616 653.1 458.712 652.884 458.88C652.668 459.048 652.536 459.192 652.488 459.312C652.464 459.408 652.452 459.636 652.452 459.996V464.28H661.74ZM678.08 456H679.34C679.772 456 680.06 456.036 680.204 456.108C680.372 456.156 680.6 456.3 680.888 456.54C681.272 456.852 681.464 457.152 681.464 457.44H681.608C681.608 457.152 681.872 456.852 682.4 456.54C682.832 456.276 683.12 456.12 683.264 456.072C683.432 456.024 683.732 456 684.164 456H687.476C688.052 456 688.628 456.24 689.204 456.72L690.068 457.44L687.908 459.24L687.476 458.88C687.26 458.712 687.092 458.616 686.972 458.592C686.852 458.544 686.576 458.52 686.144 458.52H684.596C684.164 458.52 683.864 458.544 683.696 458.592C683.552 458.64 683.264 458.796 682.832 459.06C682.4 459.324 682.148 459.516 682.076 459.636C682.004 459.756 681.968 459.996 681.968 460.356V474H678.944V459.996C678.944 459.636 678.92 459.408 678.872 459.312C678.848 459.192 678.728 459.048 678.512 458.88C678.296 458.712 678.164 458.58 678.116 458.484C678.092 458.364 678.08 458.124 678.08 457.764V456ZM706.663 470.76L708.823 472.56L707.959 473.28C707.527 473.64 707.227 473.856 707.059 473.928C706.915 473.976 706.627 474 706.195 474H696.583C696.007 474 695.431 473.76 694.855 473.28L693.991 472.56C693.415 472.08 693.127 471.48 693.127 470.76V459.24C693.127 458.52 693.415 457.92 693.991 457.44L694.855 456.72C695.431 456.24 696.007 456 696.583 456H704.971C705.451 456 706.027 456.24 706.699 456.72L707.599 457.44C708.175 457.872 708.463 458.472 708.463 459.24V466.62H696.151V470.004C696.151 470.364 696.163 470.604 696.187 470.724C696.235 470.82 696.367 470.952 696.583 471.12C696.799 471.288 696.967 471.396 697.087 471.444C697.207 471.468 697.483 471.48 697.915 471.48H704.899C705.331 471.48 705.619 471.456 705.763 471.408C705.931 471.336 706.231 471.12 706.663 470.76ZM705.439 464.28V459.996C705.439 459.636 705.415 459.408 705.367 459.312C705.343 459.192 705.223 459.048 705.007 458.88C704.791 458.712 704.623 458.616 704.503 458.592C704.383 458.544 704.107 458.52 703.675 458.52H697.915C697.483 458.52 697.207 458.544 697.087 458.592C696.967 458.616 696.799 458.712 696.583 458.88C696.367 459.048 696.235 459.192 696.187 459.312C696.163 459.408 696.151 459.636 696.151 459.996V464.28H705.439ZM721.887 474H716.235C715.659 474 715.083 473.76 714.507 473.28L713.643 472.56C713.067 472.08 712.779 471.48 712.779 470.76V456H715.803V470.004C715.803 470.364 715.815 470.604 715.839 470.724C715.887 470.82 716.019 470.952 716.235 471.12C716.451 471.288 716.619 471.396 716.739 471.444C716.859 471.468 717.135 471.48 717.567 471.48H721.455C721.887 471.48 722.175 471.456 722.319 471.408C722.487 471.36 722.787 471.204 723.219 470.94C723.651 470.676 723.903 470.484 723.975 470.364C724.047 470.244 724.083 470.004 724.083 469.644V456H727.107V470.004C727.107 470.364 727.119 470.604 727.143 470.724C727.191 470.82 727.323 470.952 727.539 471.12C727.755 471.288 727.875 471.432 727.899 471.552C727.947 471.648 727.971 471.876 727.971 472.236V474H726.711C726.279 474 725.979 473.976 725.811 473.928C725.667 473.856 725.451 473.7 725.163 473.46C724.779 473.148 724.587 472.848 724.587 472.56H724.443C724.443 472.848 724.179 473.148 723.651 473.46C723.219 473.724 722.919 473.88 722.751 473.928C722.607 473.976 722.319 474 721.887 474ZM732.291 456H733.551C733.983 456 734.271 456.036 734.415 456.108C734.583 456.156 734.811 456.3 735.099 456.54C735.483 456.852 735.675 457.152 735.675 457.44H735.819C735.819 457.152 736.083 456.852 736.611 456.54C737.043 456.276 737.331 456.12 737.475 456.072C737.643 456.024 737.943 456 738.375 456H744.747C745.323 456 745.899 456.24 746.475 456.72L747.339 457.44C747.915 457.92 748.203 458.52 748.203 459.24V474H745.179V459.996C745.179 459.636 745.155 459.408 745.107 459.312C745.083 459.192 744.963 459.048 744.747 458.88C744.531 458.712 744.363 458.616 744.243 458.592C744.123 458.544 743.847 458.52 743.415 458.52H738.807C738.375 458.52 738.075 458.544 737.907 458.592C737.763 458.64 737.475 458.796 737.043 459.06C736.611 459.324 736.359 459.516 736.287 459.636C736.215 459.756 736.179 459.996 736.179 460.356V474H733.155V459.996C733.155 459.636 733.131 459.408 733.083 459.312C733.059 459.192 732.939 459.048 732.723 458.88C732.507 458.712 732.375 458.58 732.327 458.484C732.303 458.364 732.291 458.124 732.291 457.764V456ZM755.674 474H752.65V456H755.674V474ZM755.998 450.384V450.672C755.998 451.128 755.974 451.416 755.926 451.536C755.902 451.656 755.794 451.8 755.602 451.968C755.41 452.16 754.966 452.256 754.27 452.256H754.09C753.562 452.256 753.238 452.244 753.118 452.22C752.998 452.196 752.854 452.112 752.686 451.968C752.518 451.8 752.41 451.656 752.362 451.536C752.338 451.416 752.326 451.128 752.326 450.672V450.384C752.326 449.928 752.338 449.64 752.362 449.52C752.41 449.4 752.53 449.256 752.722 449.088C752.866 448.944 752.998 448.86 753.118 448.836C753.238 448.812 753.562 448.8 754.09 448.8H754.234C754.954 448.8 755.422 448.896 755.638 449.088C755.806 449.256 755.902 449.4 755.926 449.52C755.974 449.64 755.998 449.928 755.998 450.384ZM763.627 456H772.267C772.843 456 773.419 456.24 773.995 456.72L774.859 457.44C775.435 457.92 775.723 458.52 775.723 459.24V470.76C775.723 471.48 775.435 472.08 774.859 472.56L773.995 473.28C773.419 473.76 772.843 474 772.267 474H763.627C763.051 474 762.475 473.76 761.899 473.28L761.035 472.56C760.459 472.08 760.171 471.48 760.171 470.76V459.24C760.171 458.52 760.459 457.92 761.035 457.44L761.899 456.72C762.475 456.24 763.051 456 763.627 456ZM772.699 470.004V459.996C772.699 459.636 772.675 459.408 772.627 459.312C772.603 459.192 772.483 459.048 772.267 458.88C772.051 458.712 771.883 458.616 771.763 458.592C771.643 458.544 771.367 458.52 770.935 458.52H764.959C764.527 458.52 764.251 458.544 764.131 458.592C764.011 458.616 763.843 458.712 763.627 458.88C763.411 459.048 763.279 459.192 763.231 459.312C763.207 459.408 763.195 459.636 763.195 459.996V470.004C763.195 470.364 763.207 470.604 763.231 470.724C763.279 470.82 763.411 470.952 763.627 471.12C763.843 471.288 764.011 471.396 764.131 471.444C764.251 471.468 764.527 471.48 764.959 471.48H770.935C771.367 471.48 771.643 471.468 771.763 471.444C771.883 471.396 772.051 471.288 772.267 471.12C772.483 470.952 772.603 470.82 772.627 470.724C772.675 470.604 772.699 470.364 772.699 470.004ZM762.439 451.968L765.283 450.564C765.523 450.42 765.811 450.348 766.147 450.348C766.315 450.348 766.591 450.42 766.975 450.564C767.359 450.684 767.731 450.816 768.091 450.96C768.451 451.104 768.775 451.248 769.063 451.392C769.375 451.512 769.603 451.572 769.747 451.572C769.867 451.572 770.023 451.536 770.215 451.464L772.447 450.312L773.419 452.148L770.575 453.588C770.311 453.732 770.023 453.804 769.711 453.804C769.423 453.804 769.123 453.744 768.811 453.624C768.499 453.48 768.175 453.336 767.839 453.192C767.503 453.024 767.179 452.88 766.867 452.76C766.579 452.616 766.339 452.544 766.147 452.544C765.907 452.544 765.559 452.664 765.103 452.904L763.411 453.804L762.439 451.968ZM793.604 470.76L795.764 472.56L794.9 473.28C794.468 473.64 794.168 473.856 794 473.928C793.856 473.976 793.568 474 793.136 474H783.524C782.948 474 782.372 473.76 781.796 473.28L780.932 472.56C780.356 472.08 780.068 471.48 780.068 470.76V459.24C780.068 458.52 780.356 457.92 780.932 457.44L781.796 456.72C782.372 456.24 782.948 456 783.524 456H791.912C792.392 456 792.968 456.24 793.64 456.72L794.54 457.44C795.116 457.872 795.404 458.472 795.404 459.24V466.62H783.092V470.004C783.092 470.364 783.104 470.604 783.128 470.724C783.176 470.82 783.308 470.952 783.524 471.12C783.74 471.288 783.908 471.396 784.028 471.444C784.148 471.468 784.424 471.48 784.856 471.48H791.84C792.272 471.48 792.56 471.456 792.704 471.408C792.872 471.336 793.172 471.12 793.604 470.76ZM792.38 464.28V459.996C792.38 459.636 792.356 459.408 792.308 459.312C792.284 459.192 792.164 459.048 791.948 458.88C791.732 458.712 791.564 458.616 791.444 458.592C791.324 458.544 791.048 458.52 790.616 458.52H784.856C784.424 458.52 784.148 458.544 784.028 458.592C783.908 458.616 783.74 458.712 783.524 458.88C783.308 459.048 783.176 459.192 783.128 459.312C783.104 459.408 783.092 459.636 783.092 459.996V464.28H792.38ZM811.169 463.56C811.745 463.56 812.321 463.8 812.897 464.28L813.761 465C814.337 465.48 814.625 466.08 814.625 466.8V470.76C814.625 471.48 814.337 472.08 813.761 472.56L812.897 473.28C812.321 473.76 811.745 474 811.169 474H803.177C802.601 474 802.025 473.76 801.449 473.28L800.585 472.56C800.009 472.08 799.721 471.48 799.721 470.76V469.32H802.745V470.004C802.745 470.364 802.757 470.604 802.781 470.724C802.829 470.82 802.961 470.952 803.177 471.12C803.393 471.288 803.561 471.396 803.681 471.444C803.801 471.468 804.077 471.48 804.509 471.48H809.837C810.269 471.48 810.545 471.468 810.665 471.444C810.785 471.396 810.953 471.288 811.169 471.12C811.385 470.952 811.505 470.82 811.529 470.724C811.577 470.604 811.601 470.364 811.601 470.004V467.088C811.577 466.896 811.433 466.68 811.169 466.44C810.953 466.272 810.785 466.176 810.665 466.152C810.545 466.104 810.269 466.08 809.837 466.08H803.537C802.961 466.08 802.385 465.84 801.809 465.36L800.945 464.64C800.369 464.16 800.081 463.56 800.081 462.84V459.24C800.081 458.52 800.369 457.92 800.945 457.44L801.809 456.72C802.385 456.24 802.961 456 803.537 456H811.169C811.745 456 812.321 456.24 812.897 456.72L813.761 457.44C814.337 457.92 814.625 458.52 814.625 459.24V460.68H811.601V459.996C811.601 459.636 811.577 459.408 811.529 459.312C811.505 459.192 811.385 459.048 811.169 458.88C810.953 458.712 810.785 458.616 810.665 458.592C810.545 458.544 810.269 458.52 809.837 458.52H804.869C804.437 458.52 804.161 458.544 804.041 458.592C803.921 458.616 803.753 458.712 803.537 458.88C803.321 459.048 803.189 459.192 803.141 459.312C803.117 459.408 803.105 459.636 803.105 459.996V462.084C803.105 462.444 803.117 462.684 803.141 462.804C803.189 462.9 803.321 463.032 803.537 463.2C803.753 463.368 803.921 463.476 804.041 463.524C804.161 463.548 804.437 463.56 804.869 463.56H811.169Z" fill="#353233"/>
<path d="M582.391 93.48H573.787C573.211 93.48 572.635 93.24 572.059 92.76L571.087 91.932C570.583 91.524 570.331 91.044 570.331 90.492V83.04C570.331 82.32 570.619 81.72 571.195 81.24L572.059 80.52C572.635 80.04 573.211 79.8 573.787 79.8H583.363C583.939 79.8 584.515 80.04 585.091 80.52L585.955 81.24C586.531 81.72 586.819 82.32 586.819 83.04V84.48H583.795V83.796C583.795 83.436 583.771 83.208 583.723 83.112C583.699 82.992 583.579 82.848 583.363 82.68C583.147 82.512 582.979 82.416 582.859 82.392C582.739 82.344 582.463 82.32 582.031 82.32H575.119C574.687 82.32 574.411 82.344 574.291 82.392C574.171 82.416 574.003 82.512 573.787 82.68C573.571 82.848 573.439 82.992 573.391 83.112C573.367 83.208 573.355 83.436 573.355 83.796V89.484C573.355 89.844 573.367 90.084 573.391 90.204C573.439 90.3 573.571 90.432 573.787 90.6C574.003 90.768 574.171 90.876 574.291 90.924C574.411 90.948 574.687 90.96 575.119 90.96H583.723C584.299 90.96 584.875 91.2 585.451 91.68L586.315 92.4C586.891 92.88 587.179 93.48 587.179 94.2V101.76C587.179 102.48 586.891 103.08 586.315 103.56L585.451 104.28C584.875 104.76 584.299 105 583.723 105H573.427C572.851 105 572.275 104.76 571.699 104.28L570.835 103.56C570.259 103.08 569.971 102.48 569.971 101.76V100.32H572.995V101.004C572.995 101.364 573.007 101.604 573.031 101.724C573.079 101.82 573.211 101.952 573.427 102.12C573.643 102.288 573.811 102.396 573.931 102.444C574.051 102.468 574.327 102.48 574.759 102.48H582.391C582.823 102.48 583.099 102.468 583.219 102.444C583.339 102.396 583.507 102.288 583.723 102.12C583.939 101.952 584.059 101.82 584.083 101.724C584.131 101.604 584.155 101.364 584.155 101.004V94.956C584.155 94.596 584.131 94.368 584.083 94.272C584.059 94.152 583.939 94.008 583.723 93.84C583.507 93.672 583.339 93.576 583.219 93.552C583.099 93.504 582.823 93.48 582.391 93.48ZM604.709 103.56H604.565C604.565 103.848 604.301 104.148 603.773 104.46C603.341 104.724 603.041 104.88 602.873 104.928C602.729 104.976 602.441 105 602.009 105H595.853C595.277 105 594.701 104.76 594.125 104.28L593.261 103.56C592.685 103.08 592.397 102.48 592.397 101.76V97.44C592.397 96.72 592.685 96.12 593.261 95.64L594.125 94.92C594.701 94.44 595.277 94.2 595.853 94.2H602.297C602.753 94.2 603.041 94.224 603.161 94.272C603.281 94.296 603.437 94.392 603.629 94.56C603.917 94.8 604.061 95.04 604.061 95.28H604.205V90.996C604.205 90.636 604.181 90.408 604.133 90.312C604.109 90.192 603.989 90.048 603.773 89.88C603.557 89.712 603.389 89.616 603.269 89.592C603.149 89.544 602.873 89.52 602.441 89.52H596.609C596.177 89.52 595.877 89.556 595.709 89.628C595.565 89.676 595.277 89.88 594.845 90.24L592.685 88.44L593.549 87.72C593.981 87.36 594.269 87.156 594.413 87.108C594.581 87.036 594.881 87 595.313 87H603.773C604.349 87 604.925 87.24 605.501 87.72L606.365 88.44C606.941 88.92 607.229 89.52 607.229 90.24V101.004C607.229 101.364 607.241 101.604 607.265 101.724C607.313 101.82 607.445 101.952 607.661 102.12C607.877 102.288 607.997 102.432 608.021 102.552C608.069 102.648 608.093 102.876 608.093 103.236V105H606.833C606.401 105 606.101 104.976 605.933 104.928C605.789 104.856 605.573 104.7 605.285 104.46C604.901 104.148 604.709 103.848 604.709 103.56ZM595.421 98.196V101.004C595.421 101.364 595.433 101.604 595.457 101.724C595.505 101.82 595.637 101.952 595.853 102.12C596.069 102.288 596.237 102.396 596.357 102.444C596.477 102.468 596.753 102.48 597.185 102.48H601.577C602.009 102.48 602.297 102.456 602.441 102.408C602.609 102.36 602.909 102.204 603.341 101.94C603.773 101.676 604.025 101.484 604.097 101.364C604.169 101.244 604.205 101.004 604.205 100.644V98.196C604.205 97.836 604.181 97.608 604.133 97.512C604.109 97.392 603.989 97.248 603.773 97.08C603.557 96.912 603.389 96.816 603.269 96.792C603.149 96.744 602.873 96.72 602.441 96.72H597.185C596.753 96.72 596.477 96.744 596.357 96.792C596.237 96.816 596.069 96.912 595.853 97.08C595.637 97.248 595.505 97.392 595.457 97.512C595.433 97.608 595.421 97.836 595.421 98.196ZM612.608 78.36H615.632V100.5C615.632 101.052 615.656 101.4 615.704 101.544C615.752 101.664 615.92 101.82 616.208 102.012C616.52 102.252 616.7 102.444 616.748 102.588C616.82 102.708 616.856 103.044 616.856 103.596V105H615.776C615.32 105 615.02 104.976 614.876 104.928C614.732 104.88 614.48 104.736 614.12 104.496L613.328 103.956C612.968 103.716 612.752 103.524 612.68 103.38C612.632 103.236 612.608 102.888 612.608 102.336V78.36ZM634.029 103.56H633.885C633.885 103.848 633.621 104.148 633.093 104.46C632.661 104.724 632.361 104.88 632.193 104.928C632.049 104.976 631.761 105 631.329 105H625.173C624.597 105 624.021 104.76 623.445 104.28L622.581 103.56C622.005 103.08 621.717 102.48 621.717 101.76V97.44C621.717 96.72 622.005 96.12 622.581 95.64L623.445 94.92C624.021 94.44 624.597 94.2 625.173 94.2H631.617C632.073 94.2 632.361 94.224 632.481 94.272C632.601 94.296 632.757 94.392 632.949 94.56C633.237 94.8 633.381 95.04 633.381 95.28H633.525V90.996C633.525 90.636 633.501 90.408 633.453 90.312C633.429 90.192 633.309 90.048 633.093 89.88C632.877 89.712 632.709 89.616 632.589 89.592C632.469 89.544 632.193 89.52 631.761 89.52H625.929C625.497 89.52 625.197 89.556 625.029 89.628C624.885 89.676 624.597 89.88 624.165 90.24L622.005 88.44L622.869 87.72C623.301 87.36 623.589 87.156 623.733 87.108C623.901 87.036 624.201 87 624.633 87H633.093C633.669 87 634.245 87.24 634.821 87.72L635.685 88.44C636.261 88.92 636.549 89.52 636.549 90.24V101.004C636.549 101.364 636.561 101.604 636.585 101.724C636.633 101.82 636.765 101.952 636.981 102.12C637.197 102.288 637.317 102.432 637.341 102.552C637.389 102.648 637.413 102.876 637.413 103.236V105H636.153C635.721 105 635.421 104.976 635.253 104.928C635.109 104.856 634.893 104.7 634.605 104.46C634.221 104.148 634.029 103.848 634.029 103.56ZM624.741 98.196V101.004C624.741 101.364 624.753 101.604 624.777 101.724C624.825 101.82 624.957 101.952 625.173 102.12C625.389 102.288 625.557 102.396 625.677 102.444C625.797 102.468 626.073 102.48 626.505 102.48H630.897C631.329 102.48 631.617 102.456 631.761 102.408C631.929 102.36 632.229 102.204 632.661 101.94C633.093 101.676 633.345 101.484 633.417 101.364C633.489 101.244 633.525 101.004 633.525 100.644V98.196C633.525 97.836 633.501 97.608 633.453 97.512C633.429 97.392 633.309 97.248 633.093 97.08C632.877 96.912 632.709 96.816 632.589 96.792C632.469 96.744 632.193 96.72 631.761 96.72H626.505C626.073 96.72 625.797 96.744 625.677 96.792C625.557 96.816 625.389 96.912 625.173 97.08C624.957 97.248 624.825 97.392 624.777 97.512C624.753 97.608 624.741 97.836 624.741 98.196ZM662.124 88.584L663.096 81.96H665.256L664.284 88.584H668.964L668.64 90.744H663.96L663.42 94.344H668.172L667.848 96.504H663.096L662.088 103.56H659.928L660.936 96.504H657.228L656.22 103.56H654.06L655.068 96.504H650.568L650.892 94.344H655.392L655.932 90.744H651.36L651.684 88.584H656.256L657.228 81.96H659.388L658.416 88.584H662.124ZM658.092 90.744L657.552 94.344H661.26L661.8 90.744H658.092ZM674.439 87.072L672.747 85.308L677.823 79.8H682.035V105H679.227V82.752C679.227 82.272 679.263 81.96 679.335 81.816L679.227 81.708L674.439 87.072Z" fill="black"/>
<path d="M734.419 93.48H725.815C725.239 93.48 724.663 93.24 724.087 92.76L723.115 91.932C722.611 91.524 722.359 91.044 722.359 90.492V83.04C722.359 82.32 722.647 81.72 723.223 81.24L724.087 80.52C724.663 80.04 725.239 79.8 725.815 79.8H735.391C735.967 79.8 736.543 80.04 737.119 80.52L737.983 81.24C738.559 81.72 738.847 82.32 738.847 83.04V84.48H735.823V83.796C735.823 83.436 735.799 83.208 735.751 83.112C735.727 82.992 735.607 82.848 735.391 82.68C735.175 82.512 735.007 82.416 734.887 82.392C734.767 82.344 734.491 82.32 734.059 82.32H727.147C726.715 82.32 726.439 82.344 726.319 82.392C726.199 82.416 726.031 82.512 725.815 82.68C725.599 82.848 725.467 82.992 725.419 83.112C725.395 83.208 725.383 83.436 725.383 83.796V89.484C725.383 89.844 725.395 90.084 725.419 90.204C725.467 90.3 725.599 90.432 725.815 90.6C726.031 90.768 726.199 90.876 726.319 90.924C726.439 90.948 726.715 90.96 727.147 90.96H735.751C736.327 90.96 736.903 91.2 737.479 91.68L738.343 92.4C738.919 92.88 739.207 93.48 739.207 94.2V101.76C739.207 102.48 738.919 103.08 738.343 103.56L737.479 104.28C736.903 104.76 736.327 105 735.751 105H725.455C724.879 105 724.303 104.76 723.727 104.28L722.863 103.56C722.287 103.08 721.999 102.48 721.999 101.76V100.32H725.023V101.004C725.023 101.364 725.035 101.604 725.059 101.724C725.107 101.82 725.239 101.952 725.455 102.12C725.671 102.288 725.839 102.396 725.959 102.444C726.079 102.468 726.355 102.48 726.787 102.48H734.419C734.851 102.48 735.127 102.468 735.247 102.444C735.367 102.396 735.535 102.288 735.751 102.12C735.967 101.952 736.087 101.82 736.111 101.724C736.159 101.604 736.183 101.364 736.183 101.004V94.956C736.183 94.596 736.159 94.368 736.111 94.272C736.087 94.152 735.967 94.008 735.751 93.84C735.535 93.672 735.367 93.576 735.247 93.552C735.127 93.504 734.851 93.48 734.419 93.48ZM756.736 103.56H756.592C756.592 103.848 756.328 104.148 755.8 104.46C755.368 104.724 755.068 104.88 754.9 104.928C754.756 104.976 754.468 105 754.036 105H747.88C747.304 105 746.728 104.76 746.152 104.28L745.288 103.56C744.712 103.08 744.424 102.48 744.424 101.76V97.44C744.424 96.72 744.712 96.12 745.288 95.64L746.152 94.92C746.728 94.44 747.304 94.2 747.88 94.2H754.324C754.78 94.2 755.068 94.224 755.188 94.272C755.308 94.296 755.464 94.392 755.656 94.56C755.944 94.8 756.088 95.04 756.088 95.28H756.232V90.996C756.232 90.636 756.208 90.408 756.16 90.312C756.136 90.192 756.016 90.048 755.8 89.88C755.584 89.712 755.416 89.616 755.296 89.592C755.176 89.544 754.9 89.52 754.468 89.52H748.636C748.204 89.52 747.904 89.556 747.736 89.628C747.592 89.676 747.304 89.88 746.872 90.24L744.712 88.44L745.576 87.72C746.008 87.36 746.296 87.156 746.44 87.108C746.608 87.036 746.908 87 747.34 87H755.8C756.376 87 756.952 87.24 757.528 87.72L758.392 88.44C758.968 88.92 759.256 89.52 759.256 90.24V101.004C759.256 101.364 759.268 101.604 759.292 101.724C759.34 101.82 759.472 101.952 759.688 102.12C759.904 102.288 760.024 102.432 760.048 102.552C760.096 102.648 760.12 102.876 760.12 103.236V105H758.86C758.428 105 758.128 104.976 757.96 104.928C757.816 104.856 757.6 104.7 757.312 104.46C756.928 104.148 756.736 103.848 756.736 103.56ZM747.448 98.196V101.004C747.448 101.364 747.46 101.604 747.484 101.724C747.532 101.82 747.664 101.952 747.88 102.12C748.096 102.288 748.264 102.396 748.384 102.444C748.504 102.468 748.78 102.48 749.212 102.48H753.604C754.036 102.48 754.324 102.456 754.468 102.408C754.636 102.36 754.936 102.204 755.368 101.94C755.8 101.676 756.052 101.484 756.124 101.364C756.196 101.244 756.232 101.004 756.232 100.644V98.196C756.232 97.836 756.208 97.608 756.16 97.512C756.136 97.392 756.016 97.248 755.8 97.08C755.584 96.912 755.416 96.816 755.296 96.792C755.176 96.744 754.9 96.72 754.468 96.72H749.212C748.78 96.72 748.504 96.744 748.384 96.792C748.264 96.816 748.096 96.912 747.88 97.08C747.664 97.248 747.532 97.392 747.484 97.512C747.46 97.608 747.448 97.836 747.448 98.196ZM764.635 78.36H767.659V100.5C767.659 101.052 767.683 101.4 767.731 101.544C767.779 101.664 767.947 101.82 768.235 102.012C768.547 102.252 768.727 102.444 768.775 102.588C768.847 102.708 768.883 103.044 768.883 103.596V105H767.803C767.347 105 767.047 104.976 766.903 104.928C766.759 104.88 766.507 104.736 766.147 104.496L765.355 103.956C764.995 103.716 764.779 103.524 764.707 103.38C764.659 103.236 764.635 102.888 764.635 102.336V78.36ZM786.057 103.56H785.913C785.913 103.848 785.649 104.148 785.121 104.46C784.689 104.724 784.389 104.88 784.221 104.928C784.077 104.976 783.789 105 783.357 105H777.201C776.625 105 776.049 104.76 775.473 104.28L774.609 103.56C774.033 103.08 773.745 102.48 773.745 101.76V97.44C773.745 96.72 774.033 96.12 774.609 95.64L775.473 94.92C776.049 94.44 776.625 94.2 777.201 94.2H783.645C784.101 94.2 784.389 94.224 784.509 94.272C784.629 94.296 784.785 94.392 784.977 94.56C785.265 94.8 785.409 95.04 785.409 95.28H785.553V90.996C785.553 90.636 785.529 90.408 785.481 90.312C785.457 90.192 785.337 90.048 785.121 89.88C784.905 89.712 784.737 89.616 784.617 89.592C784.497 89.544 784.221 89.52 783.789 89.52H777.957C777.525 89.52 777.225 89.556 777.057 89.628C776.913 89.676 776.625 89.88 776.193 90.24L774.033 88.44L774.897 87.72C775.329 87.36 775.617 87.156 775.761 87.108C775.929 87.036 776.229 87 776.661 87H785.121C785.697 87 786.273 87.24 786.849 87.72L787.713 88.44C788.289 88.92 788.577 89.52 788.577 90.24V101.004C788.577 101.364 788.589 101.604 788.613 101.724C788.661 101.82 788.793 101.952 789.009 102.12C789.225 102.288 789.345 102.432 789.369 102.552C789.417 102.648 789.441 102.876 789.441 103.236V105H788.181C787.749 105 787.449 104.976 787.281 104.928C787.137 104.856 786.921 104.7 786.633 104.46C786.249 104.148 786.057 103.848 786.057 103.56ZM776.769 98.196V101.004C776.769 101.364 776.781 101.604 776.805 101.724C776.853 101.82 776.985 101.952 777.201 102.12C777.417 102.288 777.585 102.396 777.705 102.444C777.825 102.468 778.101 102.48 778.533 102.48H782.925C783.357 102.48 783.645 102.456 783.789 102.408C783.957 102.36 784.257 102.204 784.689 101.94C785.121 101.676 785.373 101.484 785.445 101.364C785.517 101.244 785.553 101.004 785.553 100.644V98.196C785.553 97.836 785.529 97.608 785.481 97.512C785.457 97.392 785.337 97.248 785.121 97.08C784.905 96.912 784.737 96.816 784.617 96.792C784.497 96.744 784.221 96.72 783.789 96.72H778.533C778.101 96.72 777.825 96.744 777.705 96.792C777.585 96.816 777.417 96.912 777.201 97.08C776.985 97.248 776.853 97.392 776.805 97.512C776.781 97.608 776.769 97.836 776.769 98.196ZM814.151 88.584L815.123 81.96H817.283L816.311 88.584H820.991L820.667 90.744H815.987L815.447 94.344H820.199L819.875 96.504H815.123L814.115 103.56H811.955L812.963 96.504H809.255L808.247 103.56H806.087L807.095 96.504H802.595L802.919 94.344H807.419L807.959 90.744H803.387L803.711 88.584H808.283L809.255 81.96H811.415L810.443 88.584H814.151ZM810.119 90.744L809.579 94.344H813.287L813.827 90.744H810.119ZM825.675 105V101.184C825.675 100.752 825.699 100.476 825.747 100.356C825.819 100.212 826.023 99.996 826.359 99.708L838.311 88.8C838.623 88.536 838.815 88.296 838.887 88.08C838.959 87.84 838.995 87.48 838.995 87V83.796C838.995 83.436 838.971 83.208 838.923 83.112C838.899 82.992 838.779 82.848 838.563 82.68C838.347 82.512 838.179 82.416 838.059 82.392C837.939 82.344 837.663 82.32 837.231 82.32H830.823C830.391 82.32 830.115 82.344 829.995 82.392C829.875 82.416 829.707 82.512 829.491 82.68C829.275 82.848 829.143 82.992 829.095 83.112C829.071 83.208 829.059 83.436 829.059 83.796V84.48H826.035V83.04C826.035 82.32 826.323 81.72 826.899 81.24L827.763 80.52C828.339 80.04 828.915 79.8 829.491 79.8H838.563C839.139 79.8 839.715 80.04 840.291 80.52L841.155 81.24C841.731 81.72 842.019 82.32 842.019 83.04V88.116C842.019 88.596 841.983 88.956 841.911 89.196C841.839 89.412 841.647 89.652 841.335 89.916L829.419 100.68C829.083 100.992 828.879 101.232 828.807 101.4C828.735 101.568 828.699 101.88 828.699 102.336V102.48H842.019V105H825.675Z" fill="black"/>
<path d="M827.492 217L824.572 204.96L824.472 204.46H824.392L824.292 204.96L821.432 217H819.072L815.312 203H817.092L820.092 215.32L820.192 215.82H820.292L820.372 215.32L823.332 203H825.552L828.592 215.32L828.712 215.82H828.792L828.872 215.32L831.772 203H833.552L829.792 217H827.492ZM836.525 215.82V216.28C836.525 216.48 836.518 216.607 836.505 216.66C836.491 216.713 836.438 216.78 836.345 216.86C836.251 216.953 836.051 217 835.745 217H835.645C835.325 217 835.111 216.953 835.005 216.86C834.898 216.753 834.845 216.56 834.845 216.28V215.82C834.845 215.62 834.851 215.493 834.865 215.44C834.878 215.387 834.931 215.32 835.025 215.24C835.118 215.147 835.325 215.1 835.645 215.1H835.725C836.045 215.1 836.258 215.147 836.365 215.24C836.471 215.347 836.525 215.54 836.525 215.82ZM850.007 205.6H848.327V205.22C848.327 205.02 848.313 204.893 848.287 204.84C848.273 204.773 848.207 204.693 848.087 204.6C847.967 204.507 847.873 204.453 847.807 204.44C847.74 204.413 847.587 204.4 847.347 204.4H842.387C842.147 204.4 841.993 204.413 841.927 204.44C841.86 204.453 841.767 204.507 841.647 204.6C841.527 204.693 841.453 204.773 841.427 204.84C841.413 204.893 841.407 205.02 841.407 205.22V214.78C841.407 214.98 841.413 215.113 841.427 215.18C841.453 215.233 841.527 215.307 841.647 215.4C841.767 215.493 841.86 215.553 841.927 215.58C841.993 215.593 842.147 215.6 842.387 215.6H847.347C847.587 215.6 847.74 215.593 847.807 215.58C847.873 215.553 847.967 215.493 848.087 215.4C848.207 215.307 848.273 215.233 848.287 215.18C848.313 215.113 848.327 214.98 848.327 214.78V214.4H850.007V215.2C850.007 215.6 849.847 215.933 849.527 216.2L849.047 216.6C848.727 216.867 848.407 217 848.087 217H841.647C841.327 217 841.007 216.867 840.687 216.6L840.207 216.2C839.887 215.933 839.727 215.6 839.727 215.2V204.8C839.727 204.4 839.887 204.067 840.207 203.8L840.687 203.4C841.007 203.133 841.327 203 841.647 203H848.087C848.407 203 848.727 203.133 849.047 203.4L849.527 203.8C849.847 204.067 850.007 204.4 850.007 204.8V205.6Z" fill="black"/>
<path d="M826.492 280L823.572 267.96L823.472 267.46H823.392L823.292 267.96L820.432 280H818.072L814.312 266H816.092L819.092 278.32L819.192 278.82H819.292L819.372 278.32L822.332 266H824.552L827.592 278.32L827.712 278.82H827.792L827.872 278.32L830.772 266H832.552L828.792 280H826.492ZM835.525 278.82V279.28C835.525 279.48 835.518 279.607 835.505 279.66C835.491 279.713 835.438 279.78 835.345 279.86C835.251 279.953 835.051 280 834.745 280H834.645C834.325 280 834.111 279.953 834.005 279.86C833.898 279.753 833.845 279.56 833.845 279.28V278.82C833.845 278.62 833.851 278.493 833.865 278.44C833.878 278.387 833.931 278.32 834.025 278.24C834.118 278.147 834.325 278.1 834.645 278.1H834.725C835.045 278.1 835.258 278.147 835.365 278.24C835.471 278.347 835.525 278.54 835.525 278.82ZM849.007 268.6H847.327V268.22C847.327 268.02 847.313 267.893 847.287 267.84C847.273 267.773 847.207 267.693 847.087 267.6C846.967 267.507 846.873 267.453 846.807 267.44C846.74 267.413 846.587 267.4 846.347 267.4H841.387C841.147 267.4 840.993 267.413 840.927 267.44C840.86 267.453 840.767 267.507 840.647 267.6C840.527 267.693 840.453 267.773 840.427 267.84C840.413 267.893 840.407 268.02 840.407 268.22V277.78C840.407 277.98 840.413 278.113 840.427 278.18C840.453 278.233 840.527 278.307 840.647 278.4C840.767 278.493 840.86 278.553 840.927 278.58C840.993 278.593 841.147 278.6 841.387 278.6H846.347C846.587 278.6 846.74 278.593 846.807 278.58C846.873 278.553 846.967 278.493 847.087 278.4C847.207 278.307 847.273 278.233 847.287 278.18C847.313 278.113 847.327 277.98 847.327 277.78V277.4H849.007V278.2C849.007 278.6 848.847 278.933 848.527 279.2L848.047 279.6C847.727 279.867 847.407 280 847.087 280H840.647C840.327 280 840.007 279.867 839.687 279.6L839.207 279.2C838.887 278.933 838.727 278.6 838.727 278.2V267.8C838.727 267.4 838.887 267.067 839.207 266.8L839.687 266.4C840.007 266.133 840.327 266 840.647 266H847.087C847.407 266 847.727 266.133 848.047 266.4L848.527 266.8C848.847 267.067 849.007 267.4 849.007 267.8V268.6Z" fill="black"/>
<path d="M141.629 132.596L140.837 131.948C140.549 131.708 140.345 131.576 140.225 131.552C140.105 131.504 139.865 131.48 139.505 131.48H131.081V140.48H140.477C140.909 140.48 141.185 140.468 141.305 140.444C141.425 140.396 141.593 140.288 141.809 140.12C142.025 139.952 142.145 139.82 142.169 139.724C142.217 139.604 142.241 139.364 142.241 139.004V133.892C142.241 133.508 142.217 133.256 142.169 133.136C142.121 133.016 141.941 132.836 141.629 132.596ZM131.081 120.32V128.96H138.893C139.325 128.96 139.601 128.948 139.721 128.924C139.865 128.876 140.057 128.756 140.297 128.564L141.233 127.808C141.521 127.568 141.689 127.388 141.737 127.268C141.785 127.148 141.809 126.884 141.809 126.476V121.796C141.809 121.436 141.785 121.208 141.737 121.112C141.713 120.992 141.593 120.848 141.377 120.68C141.161 120.512 140.993 120.416 140.873 120.392C140.753 120.344 140.477 120.32 140.045 120.32H131.081ZM142.025 129.824V130.004C142.313 130.004 142.649 130.16 143.033 130.472L144.761 131.876C144.977 132.068 145.109 132.248 145.157 132.416C145.229 132.56 145.265 132.848 145.265 133.28V139.76C145.265 140.48 144.977 141.08 144.401 141.56C144.209 141.704 143.921 141.944 143.537 142.28C142.961 142.76 142.385 143 141.809 143H128.057V117.8H141.377C141.953 117.8 142.529 118.04 143.105 118.52L143.969 119.24C144.545 119.72 144.833 120.32 144.833 121.04V127.196C144.833 127.7 144.641 128.108 144.257 128.42L143.033 129.356C142.649 129.668 142.313 129.824 142.025 129.824ZM153.629 125H162.269C162.845 125 163.421 125.24 163.997 125.72L164.861 126.44C165.437 126.92 165.725 127.52 165.725 128.24V139.76C165.725 140.48 165.437 141.08 164.861 141.56L163.997 142.28C163.421 142.76 162.845 143 162.269 143H153.629C153.053 143 152.477 142.76 151.901 142.28L151.037 141.56C150.461 141.08 150.173 140.48 150.173 139.76V128.24C150.173 127.52 150.461 126.92 151.037 126.44L151.901 125.72C152.477 125.24 153.053 125 153.629 125ZM162.701 139.004V128.996C162.701 128.636 162.677 128.408 162.629 128.312C162.605 128.192 162.485 128.048 162.269 127.88C162.053 127.712 161.885 127.616 161.765 127.592C161.645 127.544 161.369 127.52 160.937 127.52H154.961C154.529 127.52 154.253 127.544 154.133 127.592C154.013 127.616 153.845 127.712 153.629 127.88C153.413 128.048 153.281 128.192 153.233 128.312C153.209 128.408 153.197 128.636 153.197 128.996V139.004C153.197 139.364 153.209 139.604 153.233 139.724C153.281 139.82 153.413 139.952 153.629 140.12C153.845 140.288 154.013 140.396 154.133 140.444C154.253 140.468 154.529 140.48 154.961 140.48H160.937C161.369 140.48 161.645 140.468 161.765 140.444C161.885 140.396 162.053 140.288 162.269 140.12C162.485 139.952 162.605 139.82 162.629 139.724C162.677 139.604 162.701 139.364 162.701 139.004ZM176.73 131.48H176.874C176.874 131.192 177.03 130.82 177.342 130.364L180.87 125H184.002L178.35 133.676L184.434 143H181.302L177.342 136.952C177.03 136.472 176.874 136.112 176.874 135.872H176.73C176.73 136.112 176.574 136.472 176.262 136.952L172.302 143H169.17L175.254 133.676L169.602 125H172.734L176.262 130.364C176.574 130.82 176.73 131.192 176.73 131.48ZM201.395 139.76L203.555 141.56L202.691 142.28C202.259 142.64 201.959 142.856 201.791 142.928C201.647 142.976 201.359 143 200.927 143H191.315C190.739 143 190.163 142.76 189.587 142.28L188.723 141.56C188.147 141.08 187.859 140.48 187.859 139.76V128.24C187.859 127.52 188.147 126.92 188.723 126.44L189.587 125.72C190.163 125.24 190.739 125 191.315 125H199.703C200.183 125 200.759 125.24 201.431 125.72L202.331 126.44C202.907 126.872 203.195 127.472 203.195 128.24V135.62H190.883V139.004C190.883 139.364 190.895 139.604 190.919 139.724C190.967 139.82 191.099 139.952 191.315 140.12C191.531 140.288 191.699 140.396 191.819 140.444C191.939 140.468 192.215 140.48 192.647 140.48H199.631C200.063 140.48 200.351 140.456 200.495 140.408C200.663 140.336 200.963 140.12 201.395 139.76ZM200.171 133.28V128.996C200.171 128.636 200.147 128.408 200.099 128.312C200.075 128.192 199.955 128.048 199.739 127.88C199.523 127.712 199.355 127.616 199.235 127.592C199.115 127.544 198.839 127.52 198.407 127.52H192.647C192.215 127.52 191.939 127.544 191.819 127.592C191.699 127.616 191.531 127.712 191.315 127.88C191.099 128.048 190.967 128.192 190.919 128.312C190.895 128.408 190.883 128.636 190.883 128.996V133.28H200.171ZM218.96 132.56C219.536 132.56 220.112 132.8 220.688 133.28L221.552 134C222.128 134.48 222.416 135.08 222.416 135.8V139.76C222.416 140.48 222.128 141.08 221.552 141.56L220.688 142.28C220.112 142.76 219.536 143 218.96 143H210.968C210.392 143 209.816 142.76 209.24 142.28L208.376 141.56C207.8 141.08 207.512 140.48 207.512 139.76V138.32H210.536V139.004C210.536 139.364 210.548 139.604 210.572 139.724C210.62 139.82 210.752 139.952 210.968 140.12C211.184 140.288 211.352 140.396 211.472 140.444C211.592 140.468 211.868 140.48 212.3 140.48H217.628C218.06 140.48 218.336 140.468 218.456 140.444C218.576 140.396 218.744 140.288 218.96 140.12C219.176 139.952 219.296 139.82 219.32 139.724C219.368 139.604 219.392 139.364 219.392 139.004V136.088C219.368 135.896 219.224 135.68 218.96 135.44C218.744 135.272 218.576 135.176 218.456 135.152C218.336 135.104 218.06 135.08 217.628 135.08H211.328C210.752 135.08 210.176 134.84 209.6 134.36L208.736 133.64C208.16 133.16 207.872 132.56 207.872 131.84V128.24C207.872 127.52 208.16 126.92 208.736 126.44L209.6 125.72C210.176 125.24 210.752 125 211.328 125H218.96C219.536 125 220.112 125.24 220.688 125.72L221.552 126.44C222.128 126.92 222.416 127.52 222.416 128.24V129.68H219.392V128.996C219.392 128.636 219.368 128.408 219.32 128.312C219.296 128.192 219.176 128.048 218.96 127.88C218.744 127.712 218.576 127.616 218.456 127.592C218.336 127.544 218.06 127.52 217.628 127.52H212.66C212.228 127.52 211.952 127.544 211.832 127.592C211.712 127.616 211.544 127.712 211.328 127.88C211.112 128.048 210.98 128.192 210.932 128.312C210.908 128.408 210.896 128.636 210.896 128.996V131.084C210.896 131.444 210.908 131.684 210.932 131.804C210.98 131.9 211.112 132.032 211.328 132.2C211.544 132.368 211.712 132.476 211.832 132.524C211.952 132.548 212.228 132.56 212.66 132.56H218.96ZM245.678 127.52H240.53C240.098 127.52 239.822 127.544 239.702 127.592C239.582 127.616 239.414 127.712 239.198 127.88C238.982 128.048 238.85 128.192 238.802 128.312C238.778 128.408 238.766 128.636 238.766 128.996V139.004C238.766 139.364 238.778 139.604 238.802 139.724C238.85 139.82 238.982 139.952 239.198 140.12C239.414 140.288 239.582 140.396 239.702 140.444C239.822 140.468 240.098 140.48 240.53 140.48H245.642C246.074 140.48 246.362 140.456 246.506 140.408C246.674 140.36 246.974 140.204 247.406 139.94C247.838 139.676 248.09 139.484 248.162 139.364C248.234 139.244 248.27 139.004 248.27 138.644V129.68C248.27 129.2 247.982 128.72 247.406 128.24C246.83 127.76 246.254 127.52 245.678 127.52ZM246.074 143H239.198C238.622 143 238.046 142.76 237.47 142.28L236.606 141.56C236.03 141.08 235.742 140.48 235.742 139.76V128.24C235.742 127.52 236.03 126.92 236.606 126.44L237.47 125.72C238.046 125.24 238.622 125 239.198 125H245.534C246.11 125 246.686 125.24 247.262 125.72C247.838 126.296 248.126 126.656 248.126 126.8H248.27V116.36H251.294V139.004C251.294 139.364 251.306 139.604 251.33 139.724C251.378 139.82 251.51 139.952 251.726 140.12C251.942 140.288 252.062 140.432 252.086 140.552C252.134 140.648 252.158 140.876 252.158 141.236V143H250.898C250.466 143 250.166 142.976 249.998 142.928C249.854 142.856 249.638 142.7 249.35 142.46C248.966 142.148 248.774 141.848 248.774 141.56H248.63C248.63 141.848 248.366 142.148 247.838 142.46C247.406 142.724 247.106 142.88 246.938 142.928C246.794 142.976 246.506 143 246.074 143ZM270.02 139.76L272.18 141.56L271.316 142.28C270.884 142.64 270.584 142.856 270.416 142.928C270.272 142.976 269.984 143 269.552 143H259.94C259.364 143 258.788 142.76 258.212 142.28L257.348 141.56C256.772 141.08 256.484 140.48 256.484 139.76V128.24C256.484 127.52 256.772 126.92 257.348 126.44L258.212 125.72C258.788 125.24 259.364 125 259.94 125H268.328C268.808 125 269.384 125.24 270.056 125.72L270.956 126.44C271.532 126.872 271.82 127.472 271.82 128.24V135.62H259.508V139.004C259.508 139.364 259.52 139.604 259.544 139.724C259.592 139.82 259.724 139.952 259.94 140.12C260.156 140.288 260.324 140.396 260.444 140.444C260.564 140.468 260.84 140.48 261.272 140.48H268.256C268.688 140.48 268.976 140.456 269.12 140.408C269.288 140.336 269.588 140.12 270.02 139.76ZM268.796 133.28V128.996C268.796 128.636 268.772 128.408 268.724 128.312C268.7 128.192 268.58 128.048 268.364 127.88C268.148 127.712 267.98 127.616 267.86 127.592C267.74 127.544 267.464 127.52 267.032 127.52H261.272C260.84 127.52 260.564 127.544 260.444 127.592C260.324 127.616 260.156 127.712 259.94 127.88C259.724 128.048 259.592 128.192 259.544 128.312C259.52 128.408 259.508 128.636 259.508 128.996V133.28H268.796ZM289.277 119.96V125H293.885C294.197 125.24 294.377 125.432 294.425 125.576C294.497 125.696 294.533 126.032 294.533 126.584V127.52H289.277V139.004C289.277 139.364 289.289 139.604 289.313 139.724C289.361 139.82 289.493 139.952 289.709 140.12C289.925 140.288 290.093 140.396 290.213 140.444C290.333 140.468 290.609 140.48 291.041 140.48H294.317C294.629 140.72 294.809 140.912 294.857 141.056C294.929 141.176 294.965 141.512 294.965 142.064V143H289.709C289.133 143 288.557 142.76 287.981 142.28L287.117 141.56C286.541 141.08 286.253 140.48 286.253 139.76V127.52H284.525C284.213 127.28 284.021 127.1 283.949 126.98C283.901 126.836 283.877 126.488 283.877 125.936V125H286.253V119.96H289.277ZM298.742 125H300.002C300.434 125 300.722 125.036 300.866 125.108C301.034 125.156 301.262 125.3 301.55 125.54C301.934 125.852 302.126 126.152 302.126 126.44H302.27C302.27 126.152 302.534 125.852 303.062 125.54C303.494 125.276 303.782 125.12 303.926 125.072C304.094 125.024 304.394 125 304.826 125H308.138C308.714 125 309.29 125.24 309.866 125.72L310.73 126.44L308.57 128.24L308.138 127.88C307.922 127.712 307.754 127.616 307.634 127.592C307.514 127.544 307.238 127.52 306.806 127.52H305.258C304.826 127.52 304.526 127.544 304.358 127.592C304.214 127.64 303.926 127.796 303.494 128.06C303.062 128.324 302.81 128.516 302.738 128.636C302.666 128.756 302.63 128.996 302.63 129.356V143H299.606V128.996C299.606 128.636 299.582 128.408 299.534 128.312C299.51 128.192 299.39 128.048 299.174 127.88C298.958 127.712 298.826 127.58 298.778 127.484C298.754 127.364 298.742 127.124 298.742 126.764V125ZM326.461 141.56H326.317C326.317 141.848 326.053 142.148 325.525 142.46C325.093 142.724 324.793 142.88 324.625 142.928C324.481 142.976 324.193 143 323.761 143H317.605C317.029 143 316.453 142.76 315.877 142.28L315.013 141.56C314.437 141.08 314.149 140.48 314.149 139.76V135.44C314.149 134.72 314.437 134.12 315.013 133.64L315.877 132.92C316.453 132.44 317.029 132.2 317.605 132.2H324.049C324.505 132.2 324.793 132.224 324.913 132.272C325.033 132.296 325.189 132.392 325.381 132.56C325.669 132.8 325.813 133.04 325.813 133.28H325.957V128.996C325.957 128.636 325.933 128.408 325.885 128.312C325.861 128.192 325.741 128.048 325.525 127.88C325.309 127.712 325.141 127.616 325.021 127.592C324.901 127.544 324.625 127.52 324.193 127.52H318.361C317.929 127.52 317.629 127.556 317.461 127.628C317.317 127.676 317.029 127.88 316.597 128.24L314.437 126.44L315.301 125.72C315.733 125.36 316.021 125.156 316.165 125.108C316.333 125.036 316.633 125 317.065 125H325.525C326.101 125 326.677 125.24 327.253 125.72L328.117 126.44C328.693 126.92 328.981 127.52 328.981 128.24V139.004C328.981 139.364 328.993 139.604 329.017 139.724C329.065 139.82 329.197 139.952 329.413 140.12C329.629 140.288 329.749 140.432 329.773 140.552C329.821 140.648 329.845 140.876 329.845 141.236V143H328.585C328.153 143 327.853 142.976 327.685 142.928C327.541 142.856 327.325 142.7 327.037 142.46C326.653 142.148 326.461 141.848 326.461 141.56ZM317.173 136.196V139.004C317.173 139.364 317.185 139.604 317.209 139.724C317.257 139.82 317.389 139.952 317.605 140.12C317.821 140.288 317.989 140.396 318.109 140.444C318.229 140.468 318.505 140.48 318.937 140.48H323.329C323.761 140.48 324.049 140.456 324.193 140.408C324.361 140.36 324.661 140.204 325.093 139.94C325.525 139.676 325.777 139.484 325.849 139.364C325.921 139.244 325.957 139.004 325.957 138.644V136.196C325.957 135.836 325.933 135.608 325.885 135.512C325.861 135.392 325.741 135.248 325.525 135.08C325.309 134.912 325.141 134.816 325.021 134.792C324.901 134.744 324.625 134.72 324.193 134.72H318.937C318.505 134.72 318.229 134.744 318.109 134.792C317.989 134.816 317.821 134.912 317.605 135.08C317.389 135.248 317.257 135.392 317.209 135.512C317.185 135.608 317.173 135.836 317.173 136.196ZM346.708 139.004V128.996C346.708 128.636 346.684 128.408 346.636 128.312C346.612 128.192 346.492 128.048 346.276 127.88C346.06 127.712 345.892 127.616 345.772 127.592C345.652 127.544 345.376 127.52 344.944 127.52H339.868C339.412 127.52 339.1 127.544 338.932 127.592C338.788 127.64 338.5 127.796 338.068 128.06C337.636 128.324 337.384 128.516 337.312 128.636C337.24 128.756 337.204 128.996 337.204 129.356V138.644C337.204 139.004 337.24 139.244 337.312 139.364C337.384 139.484 337.636 139.676 338.068 139.94C338.5 140.204 338.788 140.36 338.932 140.408C339.1 140.456 339.4 140.48 339.832 140.48H344.944C345.376 140.48 345.652 140.468 345.772 140.444C345.892 140.396 346.06 140.288 346.276 140.12C346.492 139.952 346.612 139.82 346.636 139.724C346.684 139.604 346.708 139.364 346.708 139.004ZM337.204 116.36V126.692H337.348C337.348 126.476 337.612 126.14 338.14 125.684C338.668 125.228 339.124 125 339.508 125H346.276C346.852 125 347.428 125.24 348.004 125.72L348.868 126.44C349.444 126.92 349.732 127.52 349.732 128.24V139.76C349.732 140.48 349.444 141.08 348.868 141.56L348.004 142.28C347.428 142.76 346.852 143 346.276 143H339.544C339.112 143 338.812 142.976 338.644 142.928C338.5 142.88 338.212 142.724 337.78 142.46C337.228 142.196 336.94 141.932 336.916 141.668H336.772V143H334.18V116.36H337.204ZM366.715 141.56H366.571C366.571 141.848 366.307 142.148 365.779 142.46C365.347 142.724 365.047 142.88 364.879 142.928C364.735 142.976 364.447 143 364.015 143H357.859C357.283 143 356.707 142.76 356.131 142.28L355.267 141.56C354.691 141.08 354.403 140.48 354.403 139.76V135.44C354.403 134.72 354.691 134.12 355.267 133.64L356.131 132.92C356.707 132.44 357.283 132.2 357.859 132.2H364.303C364.759 132.2 365.047 132.224 365.167 132.272C365.287 132.296 365.443 132.392 365.635 132.56C365.923 132.8 366.067 133.04 366.067 133.28H366.211V128.996C366.211 128.636 366.187 128.408 366.139 128.312C366.115 128.192 365.995 128.048 365.779 127.88C365.563 127.712 365.395 127.616 365.275 127.592C365.155 127.544 364.879 127.52 364.447 127.52H358.615C358.183 127.52 357.883 127.556 357.715 127.628C357.571 127.676 357.283 127.88 356.851 128.24L354.691 126.44L355.555 125.72C355.987 125.36 356.275 125.156 356.419 125.108C356.587 125.036 356.887 125 357.319 125H365.779C366.355 125 366.931 125.24 367.507 125.72L368.371 126.44C368.947 126.92 369.235 127.52 369.235 128.24V139.004C369.235 139.364 369.247 139.604 369.271 139.724C369.319 139.82 369.451 139.952 369.667 140.12C369.883 140.288 370.003 140.432 370.027 140.552C370.075 140.648 370.099 140.876 370.099 141.236V143H368.839C368.407 143 368.107 142.976 367.939 142.928C367.795 142.856 367.579 142.7 367.291 142.46C366.907 142.148 366.715 141.848 366.715 141.56ZM357.427 136.196V139.004C357.427 139.364 357.439 139.604 357.463 139.724C357.511 139.82 357.643 139.952 357.859 140.12C358.075 140.288 358.243 140.396 358.363 140.444C358.483 140.468 358.759 140.48 359.191 140.48H363.583C364.015 140.48 364.303 140.456 364.447 140.408C364.615 140.36 364.915 140.204 365.347 139.94C365.779 139.676 366.031 139.484 366.103 139.364C366.175 139.244 366.211 139.004 366.211 138.644V136.196C366.211 135.836 366.187 135.608 366.139 135.512C366.115 135.392 365.995 135.248 365.779 135.08C365.563 134.912 365.395 134.816 365.275 134.792C365.155 134.744 364.879 134.72 364.447 134.72H359.191C358.759 134.72 358.483 134.744 358.363 134.792C358.243 134.816 358.075 134.912 357.859 135.08C357.643 135.248 357.511 135.392 357.463 135.512C357.439 135.608 357.427 135.836 357.427 136.196ZM374.613 116.36H377.637V138.5C377.637 139.052 377.661 139.4 377.709 139.544C377.757 139.664 377.925 139.82 378.213 140.012C378.525 140.252 378.705 140.444 378.753 140.588C378.825 140.708 378.861 141.044 378.861 141.596V143H377.781C377.325 143 377.025 142.976 376.881 142.928C376.737 142.88 376.485 142.736 376.125 142.496L375.333 141.956C374.973 141.716 374.757 141.524 374.685 141.38C374.637 141.236 374.613 140.888 374.613 140.336V116.36ZM388.691 125H394.991C395.567 125 396.143 125.24 396.719 125.72L397.583 126.44C398.159 126.92 398.447 127.52 398.447 128.24V143H395.423V128.996C395.423 128.636 395.399 128.408 395.351 128.312C395.327 128.192 395.207 128.048 394.991 127.88C394.775 127.712 394.607 127.616 394.487 127.592C394.367 127.544 394.091 127.52 393.659 127.52H389.051C388.595 127.52 388.283 127.544 388.115 127.592C387.971 127.64 387.683 127.796 387.251 128.06C386.819 128.324 386.567 128.516 386.495 128.636C386.423 128.756 386.387 128.996 386.387 129.356V143H383.363V116.36H386.387V126.692H386.531C386.531 126.476 386.795 126.14 387.323 125.684C387.851 125.228 388.307 125 388.691 125ZM406.261 125H414.901C415.477 125 416.053 125.24 416.629 125.72L417.493 126.44C418.069 126.92 418.357 127.52 418.357 128.24V139.76C418.357 140.48 418.069 141.08 417.493 141.56L416.629 142.28C416.053 142.76 415.477 143 414.901 143H406.261C405.685 143 405.109 142.76 404.533 142.28L403.669 141.56C403.093 141.08 402.805 140.48 402.805 139.76V128.24C402.805 127.52 403.093 126.92 403.669 126.44L404.533 125.72C405.109 125.24 405.685 125 406.261 125ZM415.333 139.004V128.996C415.333 128.636 415.309 128.408 415.261 128.312C415.237 128.192 415.117 128.048 414.901 127.88C414.685 127.712 414.517 127.616 414.397 127.592C414.277 127.544 414.001 127.52 413.569 127.52H407.593C407.161 127.52 406.885 127.544 406.765 127.592C406.645 127.616 406.477 127.712 406.261 127.88C406.045 128.048 405.913 128.192 405.865 128.312C405.841 128.408 405.829 128.636 405.829 128.996V139.004C405.829 139.364 405.841 139.604 405.865 139.724C405.913 139.82 406.045 139.952 406.261 140.12C406.477 140.288 406.645 140.396 406.765 140.444C406.885 140.468 407.161 140.48 407.593 140.48H413.569C414.001 140.48 414.277 140.468 414.397 140.444C414.517 140.396 414.685 140.288 414.901 140.12C415.117 139.952 415.237 139.82 415.261 139.724C415.309 139.604 415.333 139.364 415.333 139.004Z" fill="black"/>
<path d="M833.157 228.233C834.62 228.233 835.807 227.062 835.807 225.616C835.807 224.171 834.62 223 833.157 223C831.692 223 830.505 224.171 830.505 225.616C830.505 227.062 831.692 228.233 833.157 228.233Z" fill="black"/>
<path d="M838.869 231.7C838.869 231.7 839.019 228.778 835.895 228.778H830.479C827.466 228.778 827.488 231.477 827.486 231.7L827.487 239.994C827.536 240.44 827.982 240.951 828.539 240.951C829.091 240.951 829.497 240.457 829.546 240.01L830.487 253.216C830.557 253.889 831.037 254.139 831.63 254.139C832.22 254.139 832.699 253.889 832.771 253.216H833.605C833.677 253.889 834.157 254.139 834.745 254.139C835.338 254.139 835.818 253.889 835.89 253.216L836.858 240C836.858 240.448 837.298 240.953 837.853 240.953C838.406 240.953 838.848 240.44 838.898 239.994L838.869 231.7Z" fill="black"/>
<path d="M833.593 288.216C835.026 288.216 836.187 287.048 836.187 285.608C836.187 284.168 835.026 283 833.593 283C832.161 283 831 284.168 831 285.608C831 287.048 832.161 288.216 833.593 288.216Z" fill="black"/>
<path d="M839.302 295.392C839.533 294.422 838.195 290.424 838.195 290.424C838.045 290.047 837.334 288.892 835.335 288.88L831.427 288.892C829.491 288.785 828.772 289.881 828.595 290.46C828.595 290.46 827.296 294.486 827.511 295.392C827.653 295.988 828.732 296.72 829.867 297.253L827.486 304.423L830.97 304.412L830.98 313.111C831.047 313.781 831.519 314.026 832.099 314.026C832.675 314.026 833.15 313.801 833.215 313.132H833.574C833.64 313.803 834.111 314.038 834.689 314.038C835.269 314.038 835.739 313.787 835.808 313.118L835.817 304.412L839.533 304.417L837.265 297.098C838.275 296.583 839.171 295.931 839.302 295.392Z" fill="black"/>
<defs>
<filter id="filter0_d_257_2" x="0.1" y="0.1" width="899.8" height="562.8" filterUnits="userSpaceOnUse" color-interpolation-filters="sRGB">
<feFlood flood-opacity="0" result="BackgroundImageFix"/>
<feColorMatrix in="SourceAlpha" type="matrix" values="0 0 0 0 0 0 0 0 0 0 0 0 0 0 0 0 0 0 127 0" result="hardAlpha"/>
<feOffset dx="5" dy="5"/>
<feGaussianBlur stdDeviation="14.95"/>
<feComposite in2="hardAlpha" operator="out"/>
<feColorMatrix type="matrix" values="0 0 0 0 0 0 0 0 0 0 0 0 0 0 0 0 0 0 0.25 0"/>
<feBlend mode="normal" in2="BackgroundImageFix" result="effect1_dropShadow_257_2"/>
<feBlend mode="normal" in="SourceGraphic" in2="effect1_dropShadow_257_2" result="shape"/>
</filter>
</defs>
</svg>
