<svg width="174" height="240" viewBox="0 0 174 240" fill="none" xmlns="http://www.w3.org/2000/svg">
<path d="M128.026 141.246C123.419 134.515 121.879 122.968 123.472 118.671L123.789 118.253L124.737 117.731L132.113 114.293C137.497 111.783 140.616 110.49 146.23 108.359C151.089 107.186 153.447 107.976 157.374 110.494C163.735 117.383 159.918 121.046 157.738 127.704C162.557 127.605 164.706 125.148 168.285 119.659C170.833 112.742 170.436 105.501 166.142 99.7154C161.848 93.9301 156.512 91.6277 151.442 91.1675C146.943 90.391 142.668 91.4001 133.758 94.2569L117.22 100.498C98.6092 107.889 93.2357 99.8939 89.5669 95.8945C89.6823 99.4458 89.8147 101.503 90.0385 104.983L90.0615 105.34C91.1345 112.222 92.0462 115.966 93.8967 122.561C97.7486 135.519 98.5957 141.863 97.5877 151.533C97.4029 154.238 96.8564 154.837 96.0988 156.355L93.7728 159.81L81.8484 170.788C85.8312 171.06 87.6828 170.691 90.7941 169.769C94.3986 168.267 96.3705 167.405 98.6988 165.388L103.527 161.803C105.891 159.489 106.699 158.266 109.019 155.525C109.896 154.261 110.329 153.551 110.923 152.279C112.125 149.819 112.509 144.23 113.799 141.691C114.548 142.468 115.473 146.581 116.282 147.541C117.573 149.137 117.502 150.646 118.708 152.305C120.461 154.904 121.577 156.182 124.919 157.92C130.121 160.521 133.328 161.481 141.538 158.919C146.516 156.367 148.263 154.006 149.989 148.559C145.156 150.708 142.819 151.075 139.146 150.622C133.959 148.894 132.632 147.977 128.026 141.246Z" fill="black" stroke="black" stroke-width="5"/>
<path d="M45.545 32.7747C50.1619 39.4901 51.7358 51.0322 50.1619 55.3343L49.8473 55.754L48.9029 56.2786L41.5579 59.7413C36.1958 62.2687 33.0895 63.5726 27.4975 65.7222C22.6547 66.9111 20.3006 66.1282 16.3751 63.6236C10.0076 56.756 13.8033 53.0806 15.9554 46.4154C11.1488 46.5304 9.01377 48.9939 5.46234 54.4949C2.94427 61.4201 3.36387 68.6602 7.66584 74.4313C11.9678 80.2023 17.2977 82.4871 22.3558 82.9305C26.8455 83.6922 31.1058 82.6688 39.9838 79.7826L56.4576 73.4869C74.9953 66.0343 80.3813 74.0116 84.0538 77.9988C83.9269 74.4481 83.788 72.3909 83.5533 68.9127L83.5292 68.5553C82.4361 61.6763 81.5144 57.9356 79.6468 51.347C75.762 38.4018 74.8961 32.0602 75.8694 22.3867C76.0447 19.6811 76.5878 19.0807 77.3384 17.56L79.6468 14.0974L91.5037 3.07985C87.5304 2.82118 85.6849 3.19617 82.5848 4.12913C78.9947 5.64262 77.0307 6.51102 74.7152 8.53613L70.8328 12.3136C68.4829 14.6354 67.1565 15.8612 64.8519 18.6093C63.9809 19.8765 63.5515 20.5881 62.9632 21.8621C61.7727 24.3261 61.0933 25.7194 59.8153 28.2627C59.0656 27.4877 58.6312 27.0174 57.8217 26.0592C56.5286 24.4678 55.8819 23.517 54.6738 21.8621C52.9173 19.2686 51.9273 17.8173 48.588 16.091C43.391 13.5068 40.1893 12.5574 32.0093 15.1467C27.0525 17.7147 25.3186 20.0821 23.615 25.5346C28.4278 23.37 30.7573 22.9949 34.4226 23.436C39.6015 25.147 40.9282 26.0592 45.545 32.7747Z" fill="black" stroke="black" stroke-width="5"/>
<path d="M141.483 45.4482C134.768 50.0651 123.226 51.639 118.924 50.0651L118.504 49.7505L117.979 48.8061L114.517 41.4611C111.989 36.099 110.685 32.9927 108.536 27.4007C107.347 22.5579 108.13 20.2038 110.634 16.2783C117.502 9.9108 121.177 13.7065 127.842 15.8586C127.727 11.052 125.264 8.91697 119.763 5.36554C112.838 2.84746 105.598 3.26706 99.8265 7.56903C94.0555 11.871 91.7708 17.2009 91.3273 22.259C90.5656 26.7486 91.589 31.009 94.4752 39.887L100.771 56.3608C108.224 74.8985 100.246 80.2845 96.259 83.957C99.8097 83.8301 101.867 83.6912 105.345 83.4565L105.703 83.4324C112.582 82.3393 116.322 81.4175 122.911 79.55C135.856 75.6652 142.198 74.7993 151.871 75.7726C154.577 75.9479 155.177 76.491 156.698 77.2416L160.16 79.55L171.178 91.4069C171.437 87.4336 171.062 85.5881 170.129 82.488C168.615 78.8978 167.747 76.9339 165.722 74.6184L162.121 69.8144C159.799 67.4644 158.573 66.6627 155.825 64.3581C154.558 63.4871 153.846 63.0577 152.572 62.4694C150.108 61.2789 144.518 60.9143 141.975 59.6363C142.75 58.8866 146.859 57.9503 147.817 57.1407C149.409 55.8477 150.917 55.9127 152.572 54.7047C155.166 52.9481 156.44 51.8305 158.167 48.4912C160.751 43.2942 161.7 40.0925 159.111 31.9125C156.543 26.9557 154.176 25.2218 148.723 23.5182C150.888 28.331 151.263 30.6605 150.822 34.3258C149.111 39.5047 148.199 40.8314 141.483 45.4482Z" fill="black" stroke="black" stroke-width="5"/>
<path d="M32.793 127.868C39.5105 123.254 51.0533 121.685 55.3547 123.261L55.7742 123.576L56.2985 124.521L59.7579 131.867C62.2829 137.23 63.5855 140.337 65.7326 145.93C66.9193 150.773 66.1355 153.127 63.6291 157.052C56.7587 163.416 53.0849 159.619 46.4207 157.464C46.5336 162.27 48.9961 164.406 54.4955 167.96C61.4197 170.481 68.66 170.065 74.4329 165.766C80.2059 161.466 82.4929 156.137 82.9386 151.079C83.7023 146.59 82.6808 142.329 79.7985 133.45L73.5101 116.973C66.0656 98.4325 74.0453 93.05 78.0342 89.3792C74.4834 89.5046 72.4261 89.6425 68.9478 89.8758L68.5904 89.8997C61.7109 90.9897 57.9698 91.9099 51.3804 93.7745C38.4335 97.6536 32.0915 98.5167 22.4185 97.5391C19.7129 97.3627 19.1127 96.8193 17.5924 96.068L14.1308 93.7581L3.11848 81.8963C2.85807 85.8695 3.23224 87.7151 4.16383 90.8157C5.67574 94.4065 6.54327 96.3708 8.56736 98.6872L12.1661 103.493C14.4869 105.844 15.7123 106.646 18.4594 108.952C19.7262 109.823 20.4376 110.253 21.7113 110.842C24.1748 112.034 29.7651 112.401 32.3079 113.68C31.5325 114.429 27.4226 115.364 26.464 116.173C24.8721 117.465 23.3634 117.399 21.7079 118.607C19.1137 120.362 17.8385 121.479 16.1107 124.818C13.5242 130.014 12.5734 133.215 15.159 141.396C17.7249 146.354 20.0915 148.089 25.5433 149.795C23.3808 144.981 23.0068 142.651 23.4495 138.986C25.1627 133.808 26.0755 132.482 32.793 127.868Z" fill="black" stroke="black" stroke-width="5"/>
<path d="M30.4082 234H14.1836C12.4375 234 10.8496 233.672 9.41992 233.016C7.99023 232.359 6.76562 231.463 5.74609 230.326C4.73828 229.189 3.95898 227.854 3.4082 226.318C2.85742 224.783 2.58203 223.143 2.58203 221.396C2.58203 219.662 2.85742 218.033 3.4082 216.51C3.95898 214.975 4.73828 213.639 5.74609 212.502C6.76562 211.354 7.99023 210.451 9.41992 209.795C10.8496 209.127 12.4375 208.793 14.1836 208.793H30.4082V212.396H14.1836C12.9414 212.396 11.8223 212.637 10.8262 213.117C9.8418 213.586 9.00391 214.23 8.3125 215.051C7.63281 215.859 7.10547 216.809 6.73047 217.898C6.36719 218.988 6.18555 220.154 6.18555 221.396C6.18555 222.639 6.36719 223.811 6.73047 224.912C7.10547 226.002 7.63281 226.957 8.3125 227.777C9.00391 228.586 9.8418 229.225 10.8262 229.693C11.8223 230.162 12.9414 230.396 14.1836 230.396H26.8047V223.207H11.5469V219.604H30.4082V234ZM57.8828 234H39.8828C39.0039 234 38.1836 233.836 37.4219 233.508C36.6602 233.18 35.9922 232.734 35.418 232.172C34.8438 231.598 34.3926 230.93 34.0645 230.168C33.7363 229.395 33.5723 228.574 33.5723 227.707C33.5723 226.828 33.7363 226.008 34.0645 225.246C34.3926 224.484 34.8438 223.816 35.418 223.242C35.9922 222.668 36.6602 222.217 37.4219 221.889C38.1836 221.561 39.0039 221.396 39.8828 221.396H52.4688V225H39.8828C39.5078 225 39.1562 225.076 38.8281 225.229C38.5 225.369 38.2129 225.562 37.9668 225.809C37.7207 226.055 37.5273 226.342 37.3867 226.67C37.2461 226.998 37.1758 227.344 37.1758 227.707C37.1758 228.082 37.2461 228.434 37.3867 228.762C37.5273 229.078 37.7207 229.359 37.9668 229.605C38.2129 229.852 38.5 230.045 38.8281 230.186C39.1562 230.326 39.5078 230.396 39.8828 230.396H54.2793V220.5C54.2793 220.137 54.2031 219.791 54.0508 219.463C53.9102 219.135 53.7168 218.848 53.4707 218.602C53.2246 218.355 52.9375 218.162 52.6094 218.021C52.2812 217.869 51.9355 217.793 51.5723 217.793H37.1758V214.207H51.5723C52.4512 214.207 53.2715 214.371 54.0332 214.699C54.7949 215.027 55.4629 215.479 56.0371 216.053C56.6113 216.615 57.0625 217.277 57.3906 218.039C57.7188 218.801 57.8828 219.621 57.8828 220.5V234ZM67.4277 209.707C67.4277 210.082 67.3574 210.434 67.2168 210.762C67.0762 211.078 66.8828 211.359 66.6367 211.605C66.3906 211.852 66.1035 212.045 65.7754 212.186C65.4473 212.326 65.1016 212.396 64.7383 212.396C64.3633 212.396 64.0117 212.326 63.6836 212.186C63.3555 212.045 63.0684 211.852 62.8223 211.605C62.5762 211.359 62.3828 211.078 62.2422 210.762C62.1016 210.434 62.0312 210.082 62.0312 209.707C62.0312 209.344 62.1016 208.998 62.2422 208.67C62.3828 208.342 62.5762 208.055 62.8223 207.809C63.0684 207.562 63.3555 207.369 63.6836 207.229C64.0117 207.076 64.3633 207 64.7383 207C65.1016 207 65.4473 207.076 65.7754 207.229C66.1035 207.369 66.3906 207.562 66.6367 207.809C66.8828 208.055 67.0762 208.342 67.2168 208.67C67.3574 208.998 67.4277 209.344 67.4277 209.707ZM66.5312 234H62.9277V214.207H66.5312V234ZM94.2695 234H76.2695C75.3906 234 74.5703 233.836 73.8086 233.508C73.0469 233.18 72.3789 232.734 71.8047 232.172C71.2305 231.598 70.7793 230.93 70.4512 230.168C70.123 229.395 69.959 228.574 69.959 227.707C69.959 226.828 70.123 226.008 70.4512 225.246C70.7793 224.484 71.2305 223.816 71.8047 223.242C72.3789 222.668 73.0469 222.217 73.8086 221.889C74.5703 221.561 75.3906 221.396 76.2695 221.396H88.8555V225H76.2695C75.8945 225 75.543 225.076 75.2148 225.229C74.8867 225.369 74.5996 225.562 74.3535 225.809C74.1074 226.055 73.9141 226.342 73.7734 226.67C73.6328 226.998 73.5625 227.344 73.5625 227.707C73.5625 228.082 73.6328 228.434 73.7734 228.762C73.9141 229.078 74.1074 229.359 74.3535 229.605C74.5996 229.852 74.8867 230.045 75.2148 230.186C75.543 230.326 75.8945 230.396 76.2695 230.396H90.666V220.5C90.666 220.137 90.5898 219.791 90.4375 219.463C90.2969 219.135 90.1035 218.848 89.8574 218.602C89.6113 218.355 89.3242 218.162 88.9961 218.021C88.668 217.869 88.3223 217.793 87.959 217.793H73.5625V214.207H87.959C88.8379 214.207 89.6582 214.371 90.4199 214.699C91.1816 215.027 91.8496 215.479 92.4238 216.053C92.998 216.615 93.4492 217.277 93.7773 218.039C94.1055 218.801 94.2695 219.621 94.2695 220.5V234ZM104.113 231.293C104.113 231.668 104.037 232.02 103.885 232.348C103.744 232.676 103.551 232.963 103.305 233.209C103.059 233.455 102.771 233.648 102.443 233.789C102.115 233.93 101.77 234 101.406 234C101.031 234 100.68 233.93 100.352 233.789C100.035 233.648 99.7539 233.455 99.5078 233.209C99.2617 232.963 99.0684 232.676 98.9277 232.348C98.7871 232.02 98.7168 231.668 98.7168 231.293C98.7168 230.93 98.7871 230.584 98.9277 230.256C99.0684 229.928 99.2617 229.641 99.5078 229.395C99.7539 229.148 100.035 228.955 100.352 228.814C100.68 228.674 101.031 228.604 101.406 228.604C101.77 228.604 102.115 228.674 102.443 228.814C102.771 228.955 103.059 229.148 103.305 229.395C103.551 229.641 103.744 229.928 103.885 230.256C104.037 230.584 104.113 230.93 104.113 231.293ZM112.709 234H109.105V208.793H112.709V234ZM121.938 234H118.334V214.207H131.834C133.193 214.207 134.471 214.471 135.666 214.998C136.861 215.514 137.904 216.223 138.795 217.125C139.686 218.016 140.389 219.064 140.904 220.271C141.42 221.467 141.678 222.744 141.678 224.104V234H138.074V224.104C138.074 223.236 137.91 222.422 137.582 221.66C137.254 220.898 136.809 220.236 136.246 219.674C135.684 219.1 135.021 218.648 134.26 218.32C133.51 217.98 132.701 217.805 131.834 217.793H121.938V234ZM153.174 234H149.57V217.793H144.174V214.207H149.57V207H153.174V214.207H165.777V217.793H153.174V234Z" fill="black"/>
</svg>
